<svg width="2296" height="462" viewBox="0 0 2296 462" fill="none" xmlns="http://www.w3.org/2000/svg">
<path d="M576.866 230.751C576.866 169.553 552.554 110.86 509.28 67.5855C466.006 24.3113 407.313 8.02529e-06 346.115 0C284.916 -8.02527e-06 226.224 24.3113 182.949 67.5855C139.675 110.86 115.363 169.553 115.363 230.751H187.474C211.369 230.751 230.005 210.727 238.757 188.492C244.503 173.893 253.223 160.477 264.531 149.168C286.168 127.531 315.515 115.376 346.115 115.376C376.714 115.376 406.061 127.531 427.698 149.168C449.335 170.805 461.489 200.152 461.489 230.751H576.866Z" fill="url(#paint0_linear_15_22)"/>
<path d="M443.937 319.055C455.534 291.059 461.503 261.053 461.503 230.751H576.866C576.866 358.191 473.555 461.501 346.115 461.501C326.157 461.501 306.789 458.968 288.321 454.205C298.77 451.513 309.042 448.084 319.055 443.937C347.052 432.34 372.489 415.344 393.917 393.917C415.344 372.489 432.342 347.052 443.937 319.055Z" fill="#238359"/>
<path d="M0 230.75C-4.33506e-06 261.053 5.96855 291.059 17.5648 319.055C29.1612 347.052 46.1582 372.489 67.5855 393.917C89.0126 415.343 114.45 432.34 142.446 443.937C170.442 455.533 200.448 461.501 230.751 461.501C261.053 461.501 291.059 455.533 319.055 443.937C347.052 432.34 372.489 415.343 393.917 393.917C415.344 372.489 432.34 347.052 443.937 319.055C455.533 291.059 461.503 261.053 461.503 230.75H389.392C365.497 230.75 346.861 250.775 338.109 273.008C337.86 273.642 337.604 274.273 337.344 274.903C331.546 288.901 323.048 301.62 312.333 312.333C301.62 323.046 288.901 331.546 274.903 337.344C260.906 343.142 245.903 346.126 230.751 346.126C215.6 346.126 200.597 343.142 186.599 337.344C172.601 331.546 159.882 323.046 149.168 312.333C138.455 301.62 129.956 288.901 124.158 274.903C118.36 260.905 115.376 245.902 115.376 230.75H0Z" fill="url(#paint1_linear_15_22)"/>
<path d="M0.0235596 230.751C0.0235596 103.31 103.334 0 230.774 0C250.727 0 270.088 2.53241 288.556 7.29355C248.93 17.5015 212.376 38.1596 182.949 67.5856C139.675 110.859 115.364 169.553 115.364 230.751H0.0235596Z" fill="#32B87E"/>
<path d="M691.883 332.648C683.135 332.648 676.445 330.212 671.813 325.339C667.182 320.466 664.866 313.67 664.866 304.951V82.2174C664.866 73.4979 667.31 66.7018 672.199 61.8291C677.345 56.9564 684.293 54.52 693.041 54.52C700.761 54.52 706.807 56.0588 711.182 59.1363C715.813 61.9573 720.059 66.9582 723.918 74.139L813.076 236.477H799.953L889.111 74.139C892.97 66.9582 897.087 61.9573 901.462 59.1363C906.093 56.0588 912.14 54.52 919.602 54.52C928.35 54.52 935.04 56.9564 939.672 61.8291C944.561 66.7018 947.005 73.4979 947.005 82.2174V304.951C947.005 313.67 944.689 320.466 940.058 325.339C935.426 330.212 928.736 332.648 919.988 332.648C911.239 332.648 904.421 330.212 899.532 325.339C894.9 320.466 892.584 313.67 892.584 304.951V149.153H901.076L829.286 277.253C826.199 282.126 822.854 285.845 819.251 288.409C815.906 290.717 811.403 291.871 805.743 291.871C800.082 291.871 795.45 290.589 791.848 288.025C788.246 285.46 785.029 281.87 782.199 277.253L709.638 148.768H718.901V304.951C718.901 313.67 716.585 320.466 711.954 325.339C707.579 330.212 700.889 332.648 691.883 332.648Z" fill="#32B87E"/>
<path d="M1048.89 401.892C1042.2 401.892 1036.67 400.096 1032.29 396.506C1027.92 392.916 1025.35 388.171 1024.57 382.273C1023.8 376.631 1024.83 370.604 1027.66 364.192L1053.52 307.259V331.109L985.207 174.927C982.633 168.259 981.733 162.104 982.505 156.462C983.534 150.563 986.364 145.947 990.996 142.613C995.885 139.023 1002.57 137.228 1011.07 137.228C1018.01 137.228 1023.55 138.895 1027.66 142.228C1032.04 145.306 1036.03 151.333 1039.63 160.309L1085.17 275.715H1072.82L1119.91 159.924C1123.51 151.204 1127.5 145.306 1131.87 142.228C1136.5 138.895 1142.68 137.228 1150.4 137.228C1157.09 137.228 1162.36 139.023 1166.22 142.613C1170.34 145.947 1172.78 150.435 1173.56 156.077C1174.59 161.719 1173.56 167.874 1170.47 174.542L1079.77 379.58C1075.91 388.299 1071.53 394.198 1066.64 397.275C1062.01 400.353 1056.1 401.892 1048.89 401.892Z" fill="#32B87E"/>
<path d="M1444.58 368.039C1448.7 374.707 1450.24 380.734 1449.21 386.119C1448.18 391.762 1445.61 396.378 1441.49 399.968C1437.38 403.815 1432.36 406.251 1426.44 407.277C1420.78 408.303 1414.99 407.662 1409.07 405.354C1403.41 403.302 1398.52 399.199 1394.41 393.044L1367 348.42C1363.66 343.291 1359.28 339.444 1353.88 336.88C1348.73 334.572 1342.04 333.418 1333.81 333.418L1379.35 316.107C1391.19 316.107 1400.84 318.158 1408.3 322.262C1416.02 326.365 1422.97 333.417 1429.14 343.419L1444.58 368.039ZM1334.2 333.418C1307.44 333.418 1283.89 327.647 1263.56 316.107C1243.49 304.31 1227.8 287.896 1216.48 266.867C1205.41 245.837 1199.88 221.346 1199.88 193.392C1199.88 172.106 1202.97 153 1209.14 136.073C1215.58 118.891 1224.71 104.273 1236.55 92.2193C1248.38 79.9093 1262.54 70.4204 1279 63.7525C1295.73 57.0846 1314.13 53.7507 1334.2 53.7507C1361.47 53.7507 1385.14 59.521 1405.21 71.0615C1425.28 82.6021 1440.85 98.8872 1451.91 119.917C1463.24 140.69 1468.9 165.053 1468.9 193.007C1468.9 214.293 1465.68 233.527 1459.25 250.71C1452.82 267.893 1443.68 282.639 1431.84 294.949C1420.01 307.259 1405.86 316.748 1389.39 323.416C1372.92 330.084 1354.52 333.418 1334.2 333.418ZM1334.2 282.639C1349.38 282.639 1362.24 279.177 1372.79 272.252C1383.6 265.072 1391.83 254.813 1397.49 241.478C1403.41 227.885 1406.37 211.857 1406.37 193.392C1406.37 165.181 1400.07 143.383 1387.46 127.995C1374.85 112.351 1357.1 104.529 1334.2 104.529C1319.27 104.529 1306.41 107.991 1295.6 114.916C1284.79 121.84 1276.56 131.97 1270.9 145.306C1265.24 158.642 1262.41 174.67 1262.41 193.392C1262.41 221.346 1268.71 243.273 1281.32 259.173C1293.93 274.817 1311.55 282.639 1334.2 282.639Z" fill="#32B87E"/>
<path d="M1580.02 333.418C1564.06 333.418 1550.81 330.468 1540.26 324.57C1529.71 318.671 1521.86 309.823 1516.72 298.026C1511.83 285.973 1509.38 271.098 1509.38 253.403V166.464C1509.38 156.718 1511.83 149.409 1516.72 144.537C1521.86 139.664 1529.07 137.228 1538.33 137.228C1547.59 137.228 1554.8 139.664 1559.95 144.537C1565.09 149.409 1567.66 156.718 1567.66 166.464V254.942C1567.66 266.226 1569.98 274.689 1574.61 280.331C1579.24 285.716 1586.58 288.409 1596.61 288.409C1607.68 288.409 1616.68 284.562 1623.63 276.869C1630.83 268.918 1634.44 258.532 1634.44 245.709V166.464C1634.44 156.718 1636.88 149.409 1641.77 144.537C1646.92 139.664 1654.12 137.228 1663.38 137.228C1672.9 137.228 1680.11 139.664 1685 144.537C1690.14 149.409 1692.72 156.718 1692.72 166.464V303.027C1692.72 322.774 1683.32 332.648 1664.54 332.648C1655.28 332.648 1648.2 330.084 1643.31 324.954C1638.42 319.825 1635.98 312.516 1635.98 303.027V277.253L1641.77 292.256C1636.11 305.335 1628 315.465 1617.45 322.646C1606.9 329.827 1594.42 333.418 1580.02 333.418Z" fill="#32B87E"/>
<path d="M1767.92 332.648C1758.14 332.648 1750.68 330.084 1745.53 324.954C1740.39 319.825 1737.81 312.516 1737.81 303.027V166.464C1737.81 156.975 1740.26 149.794 1745.15 144.921C1750.29 139.792 1757.37 137.228 1766.38 137.228C1775.64 137.228 1782.71 139.792 1787.6 144.921C1792.49 149.794 1794.94 156.975 1794.94 166.464V186.467H1791.08C1794.16 171.08 1800.98 159.155 1811.53 150.692C1822.08 142.228 1835.72 137.484 1852.45 136.458C1858.88 135.945 1863.77 137.612 1867.11 141.459C1870.71 145.05 1872.64 151.076 1872.9 159.539C1873.42 167.49 1871.74 173.773 1867.88 178.389C1864.28 183.005 1858.11 185.826 1849.36 186.852L1840.48 187.621C1825.81 188.904 1814.88 193.135 1807.67 200.316C1800.73 207.497 1797.25 217.883 1797.25 231.476V303.027C1797.25 312.516 1794.68 319.825 1789.53 324.954C1784.64 330.084 1777.44 332.648 1767.92 332.648Z" fill="#32B87E"/>
<path d="M1959.06 333.418C1945.16 333.418 1932.68 330.725 1921.62 325.339C1910.56 319.953 1901.94 312.644 1895.76 303.412C1889.59 294.18 1886.5 283.793 1886.5 272.252C1886.5 258.404 1890.1 247.504 1897.3 239.554C1904.51 231.347 1916.22 225.577 1932.43 222.243C1948.64 218.653 1970.12 216.858 1996.88 216.858H2017.34V246.863H1997.27C1984.15 246.863 1973.47 247.632 1965.23 249.171C1957.26 250.454 1951.47 252.762 1947.87 256.096C1944.52 259.43 1942.85 264.046 1942.85 269.944C1942.85 277.125 1945.29 283.024 1950.18 287.64C1955.33 292.256 1962.66 294.564 1972.18 294.564C1979.64 294.564 1986.2 292.897 1991.87 289.563C1997.78 285.973 2002.42 281.228 2005.76 275.33C2009.11 269.175 2010.78 262.251 2010.78 254.557V210.318C2010.78 199.034 2008.2 191.084 2003.06 186.467C1997.91 181.595 1989.16 179.158 1976.81 179.158C1969.87 179.158 1962.27 180.056 1954.04 181.851C1946.06 183.39 1937.19 186.083 1927.41 189.93C1921.75 192.494 1916.73 193.135 1912.36 191.853C1907.98 190.314 1904.64 187.75 1902.32 184.159C1900.01 180.312 1898.85 176.209 1898.85 171.849C1898.85 167.233 1900.13 162.873 1902.71 158.77C1905.28 154.41 1909.53 151.204 1915.44 149.153C1927.54 144.28 1938.86 140.946 1949.41 139.151C1960.22 137.356 1970.12 136.458 1979.13 136.458C1998.94 136.458 2015.15 139.407 2027.76 145.306C2040.63 150.948 2050.27 159.796 2056.71 171.849C2063.14 183.646 2066.36 198.906 2066.36 217.627V303.027C2066.36 312.516 2064.04 319.825 2059.41 324.954C2054.78 330.084 2048.09 332.648 2039.34 332.648C2030.59 332.648 2023.77 330.084 2018.88 324.954C2014.25 319.825 2011.94 312.516 2011.94 303.027V288.794L2014.64 291.102C2013.09 299.822 2009.75 307.387 2004.6 313.798C1999.71 319.953 1993.41 324.826 1985.69 328.417C1977.97 331.751 1969.09 333.418 1959.06 333.418Z" fill="#32B87E"/>
<path d="M2139.16 332.648C2129.64 332.648 2122.31 330.084 2117.16 324.954C2112.28 319.825 2109.83 312.516 2109.83 303.027V166.464C2109.83 156.975 2112.28 149.794 2117.16 144.921C2122.31 139.792 2129.39 137.228 2138.39 137.228C2147.66 137.228 2154.73 139.792 2159.62 144.921C2164.51 149.794 2166.95 156.975 2166.95 166.464V188.391L2162.71 175.696C2168.63 163.13 2177.38 153.513 2188.95 146.845C2200.79 139.92 2214.17 136.458 2229.09 136.458C2244.28 136.458 2256.75 139.407 2266.53 145.306C2276.31 150.948 2283.64 159.668 2288.53 171.465C2293.42 183.005 2295.87 197.752 2295.87 215.704V303.027C2295.87 312.516 2293.29 319.825 2288.15 324.954C2283.26 330.084 2276.05 332.648 2266.53 332.648C2257.27 332.648 2250.06 330.084 2244.92 324.954C2240.03 319.825 2237.59 312.516 2237.59 303.027V218.396C2237.59 205.317 2235.14 195.956 2230.25 190.314C2225.62 184.416 2218.42 181.466 2208.64 181.466C2196.29 181.466 2186.38 185.313 2178.92 193.007C2171.71 200.701 2168.11 210.959 2168.11 223.782V303.027C2168.11 322.774 2158.46 332.648 2139.16 332.648Z" fill="#32B87E"/>
<defs>
<linearGradient id="paint0_linear_15_22" x1="576.866" y1="115.376" x2="115.363" y2="115.376" gradientUnits="userSpaceOnUse">
<stop stop-color="#32B87E"/>
<stop offset="1" stop-color="#238359"/>
</linearGradient>
<linearGradient id="paint1_linear_15_22" x1="1.51297e-05" y1="346.126" x2="461.503" y2="346.126" gradientUnits="userSpaceOnUse">
<stop stop-color="#238359"/>
<stop offset="1" stop-color="#154D35"/>
</linearGradient>
</defs>
</svg>
